# AST/ASF file generated using VICON BodyLanguage
# -----------------------------------------------
:version 1.10
:name VICON
:units
  mass 1.0
  length 0.45
  angle deg
:documentation
   .ast/.asf automatically generated from VICON data using
   VICON BodyBuilder and BodyLanguage model FoxedUp or BRILLIANT.MOD
:root
   order TX TY TZ RX RY RZ
   axis XYZ
   position 0 0 0  
   orientation 0 0 0 
:bonedata
  begin
     id 1 
     name lhipjoint
     direction 0.610259 -0.730986 0.305356 
     length 2.50941 
     axis 0 0 0  XYZ
  end
  begin
     id 2 
     name lfemur
     direction 0.34202 -0.939693 0  
     length 7.48822  
     axis 0 0 20  XYZ
    dof rx ry rz
    limits (-160.0 20.0)
           (-70.0 70.0)
           (-60.0 70.0)
  end
  begin
     id 3 
     name ltibia
     direction 0.34202 -0.939693 0   
     length 7.60141   
     axis 0 0 20   XYZ
    dof rx
    limits (-10.0 170.0)
  end
  begin
     id 4 
     name lfoot
     direction 0.0673488 -0.185039 0.980421   
     length 2.04049   
     axis -90 7.62852e-016 20   XYZ
    dof rx rz
    limits (-45.0 90.0)
           (-70.0 20.0)
  end
  begin
     id 5 
     name ltoes
     direction 1.5356e-011 -4.21729e-011 1   
     length 1.02897   
     axis -90 7.62852e-016 20   XYZ
    dof rx
    limits (-90.0 20.0)
  end
  begin
     id 6 
     name rhipjoint
     direction -0.57612 -0.754205 0.315056   
     length 2.43216  
     axis 0 0 0  XYZ 
  end
  begin
     id 7 
     name rfemur
     direction -0.34202 -0.939693 0   
     length 7.42799   
     axis 0 0 -20   XYZ
    dof rx ry rz
    limits (-160.0 20.0)
           (-70.0 70.0)
           (-70.0 60.0)
  end
  begin
     id 8 
     name rtibia
     direction -0.34202 -0.939693 0   
     length 7.69484   
     axis 0 0 -20   XYZ
    dof rx
    limits (-10.0 170.0)
 end
 begin
     id 9 
     name rfoot
     direction -0.111837 -0.30727 0.945028   
     length 2.15769  
     axis -90 -7.62852e-016 -20   XYZ
    dof rx rz
    limits (-45.0 90.0)
           (-20.0 70.0)
  end
  begin
     id 10 
     name rtoes
     direction -1.53539e-011 -4.21878e-011 1   
     length 1.07391   
     axis -90 -7.62852e-016 -20   XYZ
    dof rx
    limits (-90.0 20.0)
  end
  begin
     id 11 
     name lowerback
     direction 0.00552624 0.990109 -0.140195   
     length 2.12403   
     axis 0 0 0   XYZ
    dof rx ry rz
    limits (-20.0 45.0)
           (-30.0 30.0)
           (-30.0 30.0)
  end
  begin
     id 12 
     name upperback
     direction 0.00361898 0.999976 -0.00584723   
     length 2.13232   
     axis 0 0 0   XYZ
    dof rx ry rz
    limits (-20.0 45.0)
           (-30.0 30.0)
           (-30.0 30.0)
  end
  begin
     id 13 
     name thorax
     direction -0.000331275 0.998253 0.0590847   
     length 2.17688   
     axis 0 0 0   XYZ
    dof rx ry rz
    limits (-20.0 45.0)
           (-30.0 30.0)
           (-30.0 30.0)
  end
  begin
     id 14 
     name lowerneck
     direction -0.0561561 0.979832 0.19177   
     length 1.64159   
     axis 0 0 0   XYZ
    dof rx ry rz
    limits (-20.0 45.0)
           (-30.0 30.0)
           (-30.0 30.0)
  end
  begin
     id 15 
     name upperneck
     direction 0.0827153 0.979385 -0.184293   
     length 1.68939   
     axis 0 0 0   XYZ
    dof rx ry rz
    limits (-20.0 45.0)
           (-30.0 30.0)
           (-30.0 30.0)
  end
  begin
     id 16
     name head
     direction 0.0278583 0.995936 -0.0856488  
     length 1.70207  
     axis 0 0 0   XYZ
    dof rx ry rz
    limits (-20.0 45.0)
           (-30.0 30.0)
           (-30.0 30.0)
  end
  begin
     id 17 
     name lclavicle
     direction 0.950993 0.301131 -0.0702275  
     length 3.41652  
     axis 0 0 0   XYZ
    dof ry rz
    limits (-20.0 10.0)
           (0.0 20.0)
  end
  begin
     id 18 
     name lhumerus
     direction 1 -4.48981e-011 -3.9662e-029   
     length 5.32955   
     axis 180 -30 -90   XYZ
    dof rx ry rz
    limits (-60.0 90.0)
           (-90.0 90.0)
           (-90.0 90.0)
  end
  begin
     id 19
     name lradius
     direction 1 -4.48925e-011 -9.0549e-027   
     length 3.69232   
     axis 180 -30 -90   XYZ
    dof rx
    limits (-10.0 170.0)
  end
  begin
     id 20
     name lwrist
     direction 1 -4.49007e-011 -1.49005e-026   
     length 1.84616   
     axis 9.0955e-015 90 90   XYZ
    dof ry
    limits (-180.0 0.0)
 end
  begin
     id 21 
     name lhand
     direction 1 -4.49016e-011 -2.98023e-026   
     length 0.536598   
     axis 1.90115e-014 90 90   XYZ
    dof rx rz
    limits (-90.0 90.0)
           (-45.0 45.0)
  end
  begin
     id 22 
     name lfingers
     direction 1 -4.48924e-011 -5.9578e-026   
     length 0.432619   
     axis 3.80223e-014 90 90   XYZ
    dof rx
    limits (0.0 90.0)
  end
  begin
     id 23
     name lthumb
     direction 0.707107 -6.34947e-011 0.707107   
     length 0.621157   
     axis -90 45 -3.84942e-014   XYZ
    dof rx rz
    limits (-45.0 45.0)
           (-45.0 45.0)
  end
  begin
     id 24 
     name rclavicle
     direction -0.955495 0.276497 -0.102848   
     length 3.36357  
     axis 0 0 0   XYZ 
    dof ry rz
    limits (-10.0 20.0)
           (-20.0 0.0)
  end
  begin
     id 25 
     name rhumerus
     direction -1 -4.48961e-011 3.30983e-027  
     length 5.23431   
     axis 180 30 90   XYZ
    dof rx ry rz
    limits (-90.0 60.0)
           (-90.0 90.0)
           (-90.0 90.0)
  end
  begin
     id 26 
     name rradius
     direction -1 -4.48965e-011 -6.63263e-027   
     length 3.55301   
     axis 180 30 90   XYZ
    dof rx
    limits (-10.0 170.0)
  end
  begin
     id 27 
     name rwrist
     direction -1 -4.48942e-011 -1.48958e-026   
     length 1.77651   
     axis 9.0955e-015 -90 -90   XYZ
    dof ry
    limits (-180.0 0.0)
  end
  begin
     id 28
     name rhand
     direction -1 -4.48977e-011 -2.97966e-026   
     length 0.772522   
     axis 1.90115e-014 -90 -90   XYZ
    dof rx rz
    limits (-90.0 90.0)
           (-45.0 45.0)
  end
  begin
     id 29
     name rfingers
     direction -1 -4.49135e-011 -5.96389e-026   
     length 0.622827   
     axis 3.80223e-014 -90 -90   XYZ
    dof rx
    limits (0.0 90.0)
  end
  begin
     id 30
     name rthumb
     direction -0.707107 -6.34969e-011 0.707107   
     length 0.894259   
     axis -90 -45 3.84942e-014   XYZ
    dof rx rz
    limits (-45.0 45.0)
           (-45.0 45.0)
  end
:hierarchy
  begin
    root lhipjoint rhipjoint lowerback
    lhipjoint lfemur
    lfemur ltibia
    ltibia lfoot
    lfoot ltoes
    rhipjoint rfemur
    rfemur rtibia
    rtibia rfoot
    rfoot rtoes
    lowerback upperback
    upperback thorax
    thorax lowerneck lclavicle rclavicle
    lowerneck upperneck
    upperneck head
    lclavicle lhumerus
    lhumerus lradius
    lradius lwrist
    lwrist lhand lthumb
    lhand lfingers
    rclavicle rhumerus
    rhumerus rradius
    rradius rwrist
    rwrist rhand rthumb
    rhand rfingers
  end

#!OML:ASF F:\VICON\USERDATA\INSTALL\rory3\rory3.ASF
:FULLY-SPECIFIED
:DEGREES
17
root 11.9673 17.9637 -18.659 -179.216 -10.8275 179.235
lowerback 13.7167 4.65033 1.4941
upperback 2.68338 6.04541 -0.948796
thorax -4.55929 2.8414 -2.85969
lowerneck -15.5115 9.78349 -9.78968
upperneck 46.0746 12.2568 4.18296
head 19.375 2.06424 5.57027
rclavicle -2.45748e-014 1.93815e-014
rhumerus -30.8929 -12.1985 -76.6859
rradius 35.6066
rwrist 3.69233
rhand -15.2341 8.68569
rfingers 7.12502
rthumb 10.939 -21.0093
lclavicle -2.45748e-014 1.93815e-014
lhumerus -34.0251 13.4518 79.276
lradius 31.9327
lwrist -6.98666
lhand -19.1932 23.922
lfingers 7.12502
lthumb 7.11865 53.7823
rfemur -15.3578 -8.08137 24.1258
rtibia 29.5223
rfoot -12.1301 -7.20603
rtoes 4.64855
lfemur -17.1098 -11.0413 -17.8761
ltibia 35.2388
lfoot -14.4744 -2.33106
ltoes -17.1781
18
root 11.9744 17.9762 -18.6271 -179.226 -10.8064 179.161
lowerback 13.9038 4.73889 1.47468
upperback 2.54117 6.16715 -1.00854
thorax -4.80007 2.89813 -2.9573
lowerneck -15.3642 9.90619 -9.60268
upperneck 46.2 12.363 4.11721
head 19.4312 2.10817 5.52145
rclavicle 3.14577e-014 -7.05686e-015
rhumerus -31.162 -12.573 -76.4478
rradius 35.7564
rwrist 4.01456
rhand -15.0671 8.3729
rfingers 7.12502
rthumb 11.1 -21.3135
lclavicle 3.14577e-014 -7.05686e-015
lhumerus -34.4243 13.34 79.1671
lradius 31.8147
lwrist -7.10317
lhand -18.7715 24.376
lfingers 7.12502
lthumb 7.52575 54.2222
rfemur -15.4001 -8.07586 24.062
rtibia 29.4247
rfoot -11.8892 -7.2208
rtoes 4.04547
lfemur -16.9918 -11.1156 -17.8883
ltibia 36.1918
lfoot -14.5307 -2.22033
ltoes -16.4684
19
root 11.9811 18.0124 -18.5947 -179.212 -10.79 179.09
lowerback 13.8889 4.77175 1.39039
upperback 2.5013 6.20015 -1.03667
thorax -4.83817 2.9157 -2.94683
lowerneck -15.2864 10.0331 -9.54179
upperneck 46.2146 12.4988 4.19705
head 19.3932 2.18844 5.5658
rclavicle 4.4329e-014 -1.13307e-014
rhumerus -31.2302 -12.8733 -76.2933
rradius 35.8792
rwrist 4.31585
rhand -14.8747 8.43635
rfingers 7.12502
rthumb 11.2856 -21.24
lclavicle 4.4329e-014 -1.13307e-014
lhumerus -34.7775 13.2689 79.0646
lradius 31.8075
lwrist -7.10763
lhand -18.5944 24.5637
lfingers 7.12502
lthumb 7.69663 54.4037
rfemur -15.0172 -8.48258 24.0494
rtibia 29.4105
rfoot -12.0938 -6.73054
rtoes 5.13221
lfemur -16.8846 -11.2085 -17.892
ltibia 37.1198
lfoot -14.3966 -2.22969
ltoes -15.3168
20
root 11.9851 18.0315 -18.5639 -179.187 -10.7364 178.947
lowerback 13.7053 4.81673 1.28586
upperback 2.61391 6.23094 -1.10894
thorax -4.62051 2.93473 -2.94524
lowerneck -15.462 10.1006 -9.61829
upperneck 46.3227 12.569 4.44664
head 19.4586 2.23105 5.73214
rclavicle -5.18828e-014 1.63003e-014
rhumerus -31.049 -13.1342 -76.2432
rradius 35.9904
rwrist 4.1366
rhand -14.8281 8.76956
rfingers 7.12502
rthumb 11.3305 -20.9044
lclavicle -5.18828e-014 1.63003e-014
lhumerus -34.7092 13.3918 78.946
lradius 31.5383
lwrist -7.10603
lhand -18.3655 24.5609
lfingers 7.12502
lthumb 7.91756 54.3926
rfemur -14.9821 -8.52147 23.8853
rtibia 29.2607
rfoot -11.8835 -6.49126
rtoes 6.6792
lfemur -16.8031 -11.2644 -17.9596
ltibia 38.1142
lfoot -14.2356 -2.33372
ltoes -13.7645
21
root 11.9891 18.0482 -18.5305 -179.18 -10.7069 178.97
lowerback 13.7234 4.87955 1.41651
upperback 2.58858 6.33119 -1.16888
thorax -4.63023 2.98257 -3.09926
lowerneck -15.5232 10.1906 -9.54916
upperneck 46.5037 12.6373 4.55945
head 19.5779 2.26052 5.8053
rclavicle 3.76945e-014 5.06901e-015
rhumerus -31.0878 -13.413 -76.1924
rradius 36.0753
rwrist 3.97226
rhand -14.9858 8.81846
rfingers 7.12502
rthumb 11.1784 -20.8638
lclavicle 3.76945e-014 5.06901e-015
lhumerus -34.7058 13.4847 78.8126
lradius 31.1502
lwrist -7.38255
lhand -18.4224 24.3897
lfingers 7.12502
lthumb 7.86269 54.2234
rfemur -14.8083 -8.47405 23.8976
rtibia 28.8281
rfoot -11.72 -6.34807
rtoes 7.89401
lfemur -16.7592 -11.3471 -17.8274
ltibia 39.2014
lfoot -14.1224 -2.49015
ltoes -14.4024
22
root 11.9923 18.0569 -18.4982 -179.288 -10.677 179
lowerback 13.904 4.92359 1.53386
upperback 2.54136 6.40522 -1.21475
thorax -4.75566 3.0137 -3.24426
lowerneck -15.525 10.2816 -9.5214
upperneck 46.5039 12.7846 4.5751
head 19.5591 2.33107 5.8324
rclavicle -1.85789e-013 2.68359e-014
rhumerus -31.1756 -13.6939 -76.1434
rradius 36.1167
rwrist 3.97461
rhand -15.2475 8.91803
rfingers 7.12502
rthumb 10.926 -20.7777
lclavicle -1.85789e-013 2.68359e-014
lhumerus -34.9657 13.3838 78.6803
lradius 31.0399
lwrist -7.4688
lhand -18.4797 24.3288
lfingers 7.12502
lthumb 7.80732 54.1646
rfemur -14.6108 -8.32813 23.889
rtibia 28.2083
rfoot -11.3661 -6.34337
rtoes 8.63688
lfemur -16.5713 -11.4554 -17.7388
ltibia 40.3487
lfoot -14.0099 -2.7076
ltoes -15.8507
23
root 11.9931 18.049 -18.469 -179.357 -10.6118 178.937
lowerback 13.9547 4.9699 1.51537
upperback 2.54999 6.45894 -1.25492
thorax -4.76815 3.03876 -3.2892
lowerneck -15.6153 10.3282 -9.68958
upperneck 46.4205 12.9264 4.69678
head 19.4725 2.39916 5.94131
rclavicle -3.3048e-015 8.64713e-015
rhumerus -31.1671 -13.741 -76.1095
rradius 36.2351
rwrist 3.9392
rhand -15.5482 9.03772
rfingers 7.12502
rthumb 10.636 -20.6731
lclavicle -3.3048e-015 8.64713e-015
lhumerus -35.3205 13.2494 78.6087
lradius 31.1835
lwrist -7.43007
lhand -18.4946 24.2789
lfingers 7.12502
lthumb 7.79296 54.1153
rfemur -14.8897 -7.90129 23.7458
rtibia 27.4671
rfoot -10.2824 -6.67988
rtoes 7.2445
lfemur -16.4492 -11.5068 -17.7637
ltibia 41.548
lfoot -13.8269 -3.11941
ltoes -16.1631
24
root 11.9911 18.0648 -18.4378 -179.396 -10.5274 178.82
lowerback 13.8372 5.03782 1.51224
upperback 2.65103 6.53381 -1.34099
thorax -4.58274 3.07751 -3.37101
lowerneck -15.7032 10.3667 -9.63054
upperneck 46.304 13.0428 4.67342
head 19.414 2.48017 5.94178
rclavicle -1.50604e-013 1.75924e-014
rhumerus -31.0578 -13.8786 -76.0884
rradius 36.3953
rwrist 4.15743
rhand -15.6228 8.97857
rfingers 7.12502
rthumb 10.564 -20.7359
lclavicle -1.50604e-013 1.75924e-014
lhumerus -35.3303 13.1046 78.5796
lradius 31.0627
lwrist -7.39631
lhand -18.3422 24.5188
lfingers 7.12502
lthumb 7.94009 54.3496
rfemur -14.4677 -7.89268 23.5495
rtibia 26.8155
rfoot -10.2561 -6.45076
rtoes 8.48685
lfemur -16.2518 -11.5257 -17.8664
ltibia 42.6747
lfoot -13.5597 -3.50784
ltoes -17.4918
25
root 11.9895 18.0784 -18.4065 -179.443 -10.506 178.795
lowerback 13.7154 5.06337 1.58563
upperback 2.70577 6.57005 -1.40857
thorax -4.43975 3.09719 -3.47166
lowerneck -15.7051 10.4635 -9.40562
upperneck 46.2397 13.2216 4.4905
head 19.4026 2.57572 5.84596
rclavicle -7.49542e-014 2.77305e-014
rhumerus -31.0124 -13.882 -76.0886
rradius 36.6112
rwrist 4.22677
rhand -15.5198 8.75666
rfingers 7.12502
rthumb 10.6634 -20.9528
lclavicle -7.49542e-014 2.77305e-014
lhumerus -35.2835 13.2829 78.3957
lradius 30.6959
lwrist -7.74079
lhand -17.6976 25.0421
lfingers 7.12502
lthumb 8.56221 54.8485
rfemur -14.1934 -7.93751 23.4785
rtibia 26.2423
rfoot -9.99119 -6.27283
rtoes 8.91797
lfemur -16.0339 -11.6093 -17.8533
ltibia 43.7886
lfoot -13.2383 -3.9686
ltoes -20.1145
